<svg width="560" height="315" viewBox="0 0 560 315" fill="none" xmlns="http://www.w3.org/2000/svg">
<g id="Frame 1">
<rect id="Rectangle 1" width="560" height="315" fill="#EDE9CD"/>
<path id="Hand 11" d="M258.501 111.344C258.975 117.173 259.099 121.322 261.107 126.096L269.201 123.717C268.103 120.052 266.32 117.556 265.487 113.078C264.654 108.599 264.743 106.272 263.771 104.599C262.799 102.926 262.255 101.173 260.955 101.346C260.736 101.365 260.523 101.429 260.33 101.535C260.137 101.641 259.969 101.786 259.836 101.961C258.353 101.002 254.547 98.1277 252.875 98.3507C251.203 98.5737 249.786 99.0035 249.089 99.0516C248.122 99.1422 247.176 99.3862 246.287 99.7747C245.531 100.159 244.483 100.473 244.568 101.116C244.654 101.758 245.632 101.889 245.632 101.889C244.667 102.592 244.824 103.868 245.841 104.013C246.651 104.128 247.198 103.29 248.429 103.21C248.882 103.179 249.727 103.222 250.112 103.134C250.503 103.465 250.736 103.845 251.293 103.95C250.065 104.072 249.417 104.648 248.825 104.772C248.233 104.896 246.901 104.893 246.999 105.844C247.096 106.794 248.096 106.513 248.698 106.358C248.977 106.261 249.267 106.198 249.562 106.171C250.058 106.155 250.551 106.089 251.034 105.975C251.347 105.88 251.747 106.38 252.526 106.287C253.023 106.639 253.396 107.476 254.012 107.309C254.248 108.008 257.708 110.476 258.215 110.408C258.501 110.37 258.541 110.487 258.523 110.595C258.484 110.843 258.477 111.095 258.501 111.344Z" fill="#C6A577"/>
<path id="Hand 10" d="M224.324 105.799C221.719 106.715 221.291 108.399 219.046 109.973C217.584 110.994 216.642 109.973 217.138 109.016C216.178 109.74 215.32 108.557 215.979 107.116C217.456 103.89 222.834 101.159 225.011 100.82C227.189 100.482 227.611 99.3301 230.586 98.7215C233.561 98.1128 234.681 97.0635 237.118 97.0635C239.555 97.0635 240.119 97.8269 241.216 98.8028C242.313 99.7787 244.319 101.557 246.418 103.189L240.476 105.545C239.862 104.698 239.495 104.233 239.112 105.02C238.267 106.754 237.42 107.103 236.785 108.389C236.15 109.674 234.967 111.469 233.354 109.9C231.74 108.331 233.967 106.143 234.335 105.653C234.702 105.162 234.657 105.327 233.338 105.088C232.018 104.85 231.816 103.633 231.137 103.903C230.457 104.173 229.004 104.309 228.325 104.309C227.645 104.309 227.102 104.826 224.324 105.799Z" fill="#C6A577"/>
<path id="Hand 9" d="M224.345 107.77C221.74 108.685 221.312 110.37 219.066 111.944C217.605 112.964 216.663 111.944 217.159 110.986C216.199 111.71 215.341 110.527 216 109.087C217.477 105.86 222.855 103.129 225.032 102.791C227.209 102.452 227.632 101.301 230.607 100.692C233.582 100.083 234.702 99.0339 237.139 99.0339C239.576 99.0339 240.14 99.7973 241.237 100.773C242.333 101.749 244.34 103.528 246.439 105.16L240.497 107.515C239.883 106.668 239.516 106.204 239.133 106.991C238.288 108.725 237.441 109.074 236.806 110.359C236.171 111.645 234.988 113.439 233.374 111.87C231.761 110.301 233.988 108.114 234.356 107.623C234.723 107.132 234.678 107.298 233.359 107.059C232.039 106.82 231.837 105.603 231.158 105.873C230.478 106.143 229.025 106.28 228.345 106.28C227.666 106.28 227.123 106.797 224.345 107.77Z" fill="#C6A577"/>
<path id="Hand 8" d="M252.047 113.997C252.028 111.836 250.67 110.881 249.636 109.753C248.602 108.624 247.973 108.126 247.666 107.184C246.666 104.125 245.567 102.724 245.09 101.208C244.082 97.9734 237.508 98.3223 233.061 98.7027C230.926 98.889 228.077 99.1172 226.503 99.4216C224.614 99.7836 222.171 101.52 221.085 102.669C219.999 103.818 219.128 104.747 218.987 105.873C218.882 106.683 219.813 107.09 220.474 106.717C220.58 106.835 220.712 106.926 220.86 106.983C221.008 107.04 221.166 107.063 221.324 107.048C222.512 107.048 223.465 105.77 224.433 104.936C225.031 107.035 227.405 104.781 228.061 104.293C228.848 103.7 229.585 103.706 232.117 103.769C233.247 103.792 234.166 104.157 235.139 104.624C236.112 105.091 237.193 105.673 236.907 106.376C236.348 107.74 236.726 108.79 237.72 109.543C238.597 110.206 239.294 109.658 240.171 108.401C240.58 110.22 241.608 112.205 242.941 114.315L252.047 113.997Z" fill="#C6A577"/>
<path id="Hand 7" d="M234.224 95.9581C235.853 94.0764 240.202 92.4102 242.727 92.0163C244.979 91.6649 247.061 92.3305 250.805 93.3714C254.549 94.4122 256.64 95.8995 256.999 98.1987C257.221 99.6243 258.367 99.8704 258.922 102.375C259.477 104.88 261.016 106.878 262.463 108.461C263.91 110.043 263.758 112.523 263.758 112.523L255.625 113.526C253.267 110.461 252.182 105.41 251.24 101.466C248.693 101.308 246.055 99.1757 245.977 98.6729C245.431 99.0235 244.283 98.4724 244.132 98.1642C243.64 98.4135 242.551 98.3444 242.063 98.078C240.954 98.8829 238.688 100.609 238.067 99.9174C237.447 99.2256 237.994 98.6783 238.426 98.2683C238.859 97.8583 240.825 96.402 241.351 96.0305C240.246 96.0992 239.775 96.2578 239.425 96.1079C238.762 96.6734 237.462 98.5542 236.028 97.7C235.44 98.2748 234.352 98.4792 233.822 98.1157C233.392 97.8058 233.417 96.8965 234.224 95.9581Z" fill="#C6A577"/>
<path id="Hand 6" d="M253.715 102.089C255.032 107.786 255.761 111.873 258.443 116.303L266.103 112.77C264.483 109.304 262.355 107.095 260.879 102.786C259.402 98.4768 259.151 96.1609 257.945 94.6477C256.74 93.1346 255.947 91.4788 254.686 91.8399C254.471 91.8902 254.27 91.9849 254.095 92.1179C253.919 92.2508 253.774 92.419 253.668 92.6116C252.061 91.8792 247.877 89.5897 246.255 90.054C244.633 90.5184 243.294 91.1501 242.611 91.2993C241.668 91.5297 240.768 91.909 239.945 92.4229C239.253 92.913 238.261 93.377 238.44 94C238.618 94.6229 239.605 94.6105 239.605 94.6105C238.753 95.4466 239.094 96.686 240.122 96.6811C240.939 96.6763 241.358 95.7677 242.564 95.5097C243.008 95.4125 243.851 95.3324 244.219 95.1888C244.654 95.4599 244.94 95.801 245.506 95.8244C244.309 96.1235 243.752 96.7879 243.184 96.9969C242.616 97.2058 241.298 97.3976 241.533 98.3235C241.768 99.2495 242.717 98.8252 243.289 98.5849C243.551 98.4478 243.829 98.3435 244.117 98.2742C244.605 98.1857 245.084 98.0488 245.545 97.8654C245.84 97.7262 246.309 98.1623 247.066 97.9565C247.609 98.2322 248.1 99.0056 248.685 98.7509C249.021 99.408 252.804 101.346 253.295 101.205C253.573 101.125 253.629 101.235 253.627 101.344C253.625 101.595 253.654 101.845 253.715 102.089Z" fill="#C6A577"/>
<path id="Hand 5" d="M264.07 86.6254C263.132 86.8827 262.646 87.8317 262.757 88.4541C262.861 88.9255 263.018 89.3834 263.226 89.8189C263.043 90.1413 262.689 90.4286 262.473 90.3463C260.956 89.772 259.113 87.2358 257.722 86.2812C256.797 85.6452 256.286 85.5161 255.418 85.4656C254.55 85.4151 253.815 85.6327 252.722 86.1174C252.08 85.8194 251.351 85.7674 250.674 85.9712C249.915 86.1792 249.43 86.5841 249.631 87.3153C249.831 88.0465 251.106 88.4016 251.448 88.308C251.789 88.2144 252.389 88.3492 253.119 88.6988C252.397 88.4369 251.402 88.5273 251.053 88.4976C250.176 88.4225 248.871 88.7828 249.169 89.8707C249.467 90.9587 250.776 90.3037 251.318 90.5658C251.861 90.8279 253.026 91.0716 253.15 91.296C253.345 91.648 253.641 91.8145 254.207 91.9449C254.944 92.1155 254.809 92.3864 254.65 92.5689C254.49 92.7513 253.696 92.2237 253.058 92.2107C252.421 92.1976 249.892 92.0419 249.743 93.0158C249.593 93.9897 250.681 93.9475 252.054 94.2024C253.426 94.4573 255.522 95.7817 256.348 96.8992C257.701 98.7316 259.262 98.848 259.375 100.006C259.52 101.666 259.137 109.333 260.283 113.515L268.636 110.663C267.441 107.74 266.748 106.641 266.448 104.316C266.148 101.991 265.62 98.2481 265.083 96.6761C264.99 96.4026 265.068 96.2125 265.234 95.7945C265.487 95.0023 265.67 94.1893 265.781 93.365C265.874 92.6106 266.06 92.2004 265.758 91.1679C265.459 90.1257 265.283 89.0517 265.235 87.9682C265.247 87.2361 265.009 86.3682 264.07 86.6254Z" fill="#C6A577"/>
<path id="Hand 4" d="M270.587 87.7297C269.614 87.7297 268.895 88.5168 268.837 89.1464C268.813 89.6284 268.844 90.1116 268.929 90.5866C268.667 90.849 268.25 91.0326 268.064 90.8962C266.752 89.9413 265.645 87.0083 264.556 85.7202C263.832 84.8623 263.373 84.6026 262.549 84.3245C261.725 84.0465 260.959 84.0622 259.776 84.2406C259.236 83.7836 258.547 83.5409 257.84 83.5585C257.053 83.5585 256.479 83.8208 256.479 84.579C256.479 85.3372 257.615 86.0166 257.969 86.0166C258.323 86.0166 258.866 86.3052 259.477 86.8352C258.85 86.3918 257.866 86.216 257.538 86.0953C256.712 85.791 255.358 85.7937 255.358 86.9217C255.358 88.0498 256.793 87.7638 257.247 88.16C257.701 88.5561 258.761 89.0992 258.821 89.3484C258.916 89.7393 259.157 89.978 259.669 90.2535C260.335 90.6129 260.133 90.8385 259.931 90.9723C259.729 91.1061 259.102 90.3873 258.491 90.2062C257.879 90.0252 255.482 89.2067 255.08 90.1065C254.679 91.0064 255.739 91.253 256.995 91.8616C258.252 92.4702 259.923 94.3014 260.424 95.5973C261.245 97.7223 262.72 98.247 262.523 99.3934C262.224 101.033 259.829 108.326 259.829 112.663L268.638 112.12C268.258 108.985 267.88 107.741 268.205 105.419C268.531 103.098 269.011 99.3488 268.908 97.6908C268.89 97.4023 269.016 97.2396 269.286 96.8802C269.74 96.1832 270.132 95.4476 270.456 94.6818C270.745 93.9787 271.033 93.6324 271.015 92.5568C271.001 91.4724 271.116 90.3902 271.356 89.3326C271.561 88.6296 271.561 87.7297 270.587 87.7297Z" fill="#C6A577"/>
<path id="Hand 3" d="M267.219 114.525C267.192 111.406 267.999 106.115 268.24 105.083C268.48 104.051 268.489 103.675 268.434 103.336C268.38 102.997 268.73 102.911 268.972 102.617C269.214 102.323 270.611 100.406 270.971 99.6618C271.331 98.9178 271.45 98.7855 271.462 98.2148C271.475 97.6441 272.059 96.4706 271.988 95.4209C271.917 94.3712 272.539 93.0487 271.673 92.7737C270.808 92.4986 269.52 93.546 269.424 94.9696C269.328 96.3933 268.744 97.0255 268.534 96.6688C268.323 96.3121 267.224 95.2953 267.141 94.8031C267.057 94.311 266.636 91.6431 266.182 91.1572C265.728 90.6714 263.908 88.4604 262.411 89.377C260.914 90.2935 261.997 91.5003 261.997 91.5003L262.303 89.7215C261.343 88.75 260.481 87.994 259.672 88.6511C259.02 89.1845 259.482 90.0377 260.098 90.5071C260.413 90.7533 260.537 91.2144 260.911 91.6782C261.094 91.8725 261.227 92.1092 261.296 92.3672C261.322 92.4901 261.338 92.615 261.342 92.7405C260.696 91.8838 260.278 91.8348 260.176 91.5459C260.038 91.1723 259.562 90.2962 258.525 90.4215C257.371 90.5635 257.549 91.5472 258.103 91.9306C258.484 92.2574 258.814 92.6395 259.082 93.064C259.271 93.4989 259.541 93.8938 259.878 94.228C260.082 94.4012 259.935 94.5166 260.365 95.0405C260.542 95.2545 260.687 96.9282 260.36 96.6511C260.033 96.3741 259.03 95.3417 258.508 95.0066C257.986 94.6714 257.486 93.6968 256.83 94.3065C256.173 94.9163 256.902 95.6819 257.371 96.1013C257.839 96.5207 258.217 97.4597 258.824 98.1266C259.432 98.7935 260.686 103.117 261.785 104.481C262.884 105.845 259.111 114.144 258.193 118.94L267.219 114.525Z" fill="#C6A577"/>
<path id="Hand 2" d="M270.382 116.845L263.262 117.812C264.013 115.772 264.835 113.086 264.39 111.637C263.896 110.115 263.301 108.627 262.609 107.185C262.027 105.98 261.064 104.166 260.622 103.388C260.18 102.61 259.262 101.417 259.623 100.722C259.984 100.027 260.864 100.387 261.221 101.054C261.633 101.737 262.117 102.373 262.664 102.952C263.041 103.373 263.136 103.129 263.119 102.753C263.101 102.377 262.579 101.033 262.277 100.076C261.974 99.1195 261.332 98.4505 261.261 97.8724C261.189 97.2944 261.762 96.6663 262.618 97.0289C263.475 97.3915 263.357 98.1752 263.659 98.6535C263.961 99.1318 264.168 99.4843 264.271 99.6355C264.005 98.6744 263.987 97.8202 263.743 97.4907C263.499 97.1612 262.822 96.6841 263.105 95.999C263.169 95.8623 263.261 95.7407 263.375 95.6423C263.49 95.5439 263.624 95.4708 263.768 95.4281C263.913 95.3853 264.065 95.3738 264.215 95.3942C264.364 95.4146 264.508 95.4666 264.635 95.5467C264.93 95.7959 265.196 96.321 265.577 96.7526C266.022 97.3102 266.35 97.9524 266.541 98.6402C266.596 98.874 266.772 100.116 267.003 100.037C267.234 99.9585 266.946 98.194 266.707 97.9247C266.603 97.7997 266.489 97.6837 266.365 97.5781C265.875 97.2048 265.286 95.9795 266.653 95.8115C267.497 95.7078 267.832 96.2454 268.675 97.3577C269.517 98.47 269.417 99.0981 269.599 99.993C269.78 100.888 269.726 101.828 270.802 102.858C271.877 103.889 271.939 104.606 272.334 103.236C272.454 102.817 272.718 102.472 272.758 101.957C272.83 101.013 273.322 99.5354 274.377 99.4058C275.103 99.3165 275.501 99.8227 275.107 100.722C274.712 101.622 275.356 102.32 274.976 103.596C274.596 104.871 274.509 105.989 273.011 107.908C271.513 109.826 271.357 110.194 271.207 110.973C271.132 111.352 270.782 112.223 270.599 113.189C270.403 114.215 270.383 115.346 270.382 116.845Z" fill="#C6A577"/>
<path id="Hand 1" d="M269.049 123.725L261.863 123.817C262.857 121.883 264.001 119.317 263.736 117.825C263.432 116.254 263.023 114.705 262.511 113.189C262.081 111.922 261.346 110.004 261.003 109.178C260.659 108.352 259.893 107.056 260.336 106.41C260.78 105.765 261.609 106.229 261.882 106.935C262.207 107.662 262.61 108.353 263.083 108.994C263.406 109.459 263.529 109.228 263.558 108.853C263.587 108.477 263.233 107.079 263.049 106.093C262.865 105.106 262.309 104.364 262.309 103.782C262.309 103.199 262.955 102.646 263.76 103.11C264.565 103.574 264.353 104.338 264.594 104.849C264.836 105.361 264.998 105.736 265.082 105.899C264.935 104.912 265.022 104.062 264.82 103.705C264.618 103.349 264.004 102.793 264.369 102.147C264.449 102.019 264.555 101.91 264.68 101.826C264.806 101.742 264.948 101.686 265.096 101.661C265.245 101.637 265.398 101.644 265.544 101.682C265.689 101.721 265.825 101.79 265.943 101.885C266.205 102.168 266.404 102.722 266.73 103.197C267.104 103.804 267.351 104.482 267.456 105.188C267.483 105.426 267.506 106.68 267.745 106.631C267.984 106.581 267.913 104.794 267.708 104.498C267.621 104.361 267.521 104.232 267.412 104.112C266.971 103.682 266.535 102.394 267.913 102.394C268.763 102.394 269.03 102.968 269.731 104.175C270.431 105.382 270.255 105.993 270.326 106.903C270.397 107.814 270.229 108.74 271.171 109.894C272.113 111.048 272.087 111.767 272.645 110.455C272.816 110.054 273.12 109.745 273.223 109.238C273.409 108.31 274.078 106.903 275.14 106.903C275.872 106.903 276.205 107.454 275.704 108.299C275.203 109.144 275.757 109.915 275.224 111.135C274.692 112.355 274.469 113.454 272.748 115.175C271.027 116.896 270.827 117.242 270.583 117.998C270.463 118.365 270.009 119.186 269.71 120.123C269.39 121.117 269.232 122.237 269.049 123.725Z" fill="#C6A577"/>
</g>
</svg>
